<svg preserveAspectRatio="none" overflow="visible" width="16.25" height="16.25" viewBox="0 0 16.25 16.25" fill="none" xmlns="http://www.w3.org/2000/svg">
  <path d="M5.93083 0C5.02083 0 4.29917 0 3.71833 0.0474999C3.12333 0.0958333 2.62083 0.1975 2.16167 0.430833C1.41666 0.810562 0.811037 1.41647 0.431667 2.16167C0.1975 2.62 0.0958333 3.12333 0.0474999 3.71833C0 4.29917 0 5.02083 0 5.93083V10.3192C0 11.2292 0 11.9508 0.0474999 12.5317C0.0958333 13.1267 0.1975 13.6292 0.430833 14.0892C0.810704 14.8339 1.4166 15.4392 2.16167 15.8183C2.62 16.0525 3.12333 16.1542 3.71833 16.2025C4.29917 16.25 5.02083 16.25 5.93083 16.25H10.3192C11.2292 16.25 11.9508 16.25 12.5317 16.2025C13.1267 16.1542 13.6292 16.0525 14.0892 15.8192C14.8337 15.4395 15.439 14.8339 15.8183 14.0892C16.0525 13.6292 16.1542 13.1267 16.2025 12.5317C16.25 11.9508 16.25 11.2292 16.25 10.3192V5.93083C16.25 5.02083 16.25 4.29917 16.2025 3.71833C16.1542 3.12333 16.0525 2.62083 15.8192 2.16167C15.4397 1.41678 14.8341 0.811178 14.0892 0.431667C13.6292 0.1975 13.1267 0.0958333 12.5317 0.0474999C11.9508 0 11.2292 0 10.3192 0H5.93083Z" fill="#FB3675"/>
  <path d="M10.8487 4.95226C11.1628 4.61581 11.6907 4.59757 12.0271 4.91157C12.3636 5.22559 12.3818 5.7535 12.0678 6.08996L6.23447 12.34C6.08034 12.5051 5.86544 12.6005 5.63959 12.6045C5.41362 12.6083 5.19555 12.5201 5.03574 12.3603L2.11908 9.44364C1.79364 9.1182 1.79364 8.59069 2.11908 8.26525C2.44452 7.93982 2.97203 7.93982 3.29746 8.26525L5.60378 10.5716L10.8487 4.95226Z" fill="#FFFFFF"/>
</svg>
